<svg width="360" height="100" viewBox="0 0 360 100" fill="none" xmlns="http://www.w3.org/2000/svg">
<path d="M0 38H121.208C132.719 38 143.483 43.7032 149.947 53.2279C163.679 73.4591 193.586 73.3636 207.436 53.2142C213.955 43.7318 224.769 38 236.276 38H360V100H0V38Z" fill="#2ECC71"/>
<path d="M52.7295 70.7949L40.6621 58.7363C40.5752 58.6492 40.472 58.5802 40.3584 58.5331C40.2448 58.4859 40.123 58.4617 40 58.4617C39.877 58.4617 39.7552 58.4859 39.6416 58.5331C39.528 58.5802 39.4248 58.6492 39.3379 58.7363L27.2705 70.7949C26.9189 71.1465 26.7197 71.624 26.7197 72.122C26.7197 73.1562 27.5605 73.997 28.5947 73.997H29.8662V82.6015C29.8662 83.1201 30.2852 83.539 30.8037 83.539H38.125V76.9765H41.4062V83.539H49.1963C49.7148 83.539 50.1338 83.1201 50.1338 82.6015V73.997H51.4053C51.9033 73.997 52.3809 73.8008 52.7324 73.4463C53.4619 72.7138 53.4619 71.5273 52.7295 70.7949Z" fill="white"/>
<path d="M94.8125 59.75C93.7351 59.75 92.7017 60.178 91.9399 60.9399C91.178 61.7017 90.75 62.7351 90.75 63.8125V78.1875C90.75 79.2649 91.178 80.2983 91.9399 81.0601C92.7017 81.822 93.7351 82.25 94.8125 82.25H102.027C101.653 81.6656 101.355 81.0354 101.141 80.375H94.8125C94.2323 80.375 93.6759 80.1445 93.2657 79.7343C92.8555 79.3241 92.625 78.7677 92.625 78.1875V63.8125C92.625 62.605 93.605 61.625 94.8125 61.625H109.187C110.395 61.625 111.375 62.605 111.375 63.8125V70.1412C112.035 70.355 112.666 70.6529 113.25 71.0275V63.8125C113.25 62.7351 112.822 61.7017 112.06 60.9399C111.298 60.178 110.265 59.75 109.187 59.75H94.8125ZM102.625 67.5625C102.625 67.3139 102.724 67.0754 102.9 66.8996C103.075 66.7238 103.314 66.625 103.562 66.625H107.937C108.186 66.625 108.425 66.7238 108.6 66.8996C108.776 67.0754 108.875 67.3139 108.875 67.5625C108.875 67.8111 108.776 68.0496 108.6 68.2254C108.425 68.4012 108.186 68.5 107.937 68.5H103.562C103.314 68.5 103.075 68.4012 102.9 68.2254C102.724 68.0496 102.625 67.8111 102.625 67.5625ZM100.475 66.975C100.567 66.8892 100.641 66.7857 100.692 66.6707C100.743 66.5557 100.771 66.4315 100.773 66.3057C100.775 66.1798 100.752 66.0547 100.705 65.938C100.658 65.8213 100.588 65.7152 100.499 65.6262C100.41 65.5372 100.304 65.467 100.187 65.4198C100.07 65.3727 99.9452 65.3495 99.8193 65.3518C99.6935 65.354 99.5693 65.3815 99.4543 65.4328C99.3393 65.484 99.2358 65.5579 99.15 65.65L97.3125 67.4875L96.725 66.9C96.5473 66.7344 96.3122 66.6442 96.0693 66.6485C95.8265 66.6528 95.5947 66.7512 95.423 66.923C95.2512 67.0947 95.1528 67.3265 95.1485 67.5693C95.1442 67.8122 95.2344 68.0473 95.4 68.225L96.65 69.475C96.8258 69.6506 97.0641 69.7492 97.3125 69.7492C97.5609 69.7492 97.7992 69.6506 97.975 69.475L100.475 66.975ZM100.475 72.525C100.651 72.7008 100.749 72.9391 100.749 73.1875C100.749 73.4359 100.651 73.6742 100.475 73.85L97.975 76.35C97.7992 76.5256 97.5609 76.6242 97.3125 76.6242C97.0641 76.6242 96.8258 76.5256 96.65 76.35L95.4 75.1C95.3079 75.0142 95.234 74.9107 95.1828 74.7957C95.1315 74.6807 95.104 74.5565 95.1018 74.4307C95.0995 74.3048 95.1227 74.1797 95.1698 74.063C95.217 73.9463 95.2872 73.8402 95.3762 73.7512C95.4652 73.6622 95.5713 73.592 95.688 73.5448C95.8047 73.4977 95.9298 73.4745 96.0557 73.4768C96.1815 73.479 96.3057 73.5065 96.4207 73.5578C96.5357 73.609 96.6392 73.6829 96.725 73.775L97.3125 74.3625L99.15 72.525C99.3258 72.3494 99.5641 72.2508 99.8125 72.2508C100.061 72.2508 100.299 72.3494 100.475 72.525ZM115.75 77.875C115.75 76.0516 115.026 74.303 113.736 73.0136C112.447 71.7243 110.698 71 108.875 71C107.052 71 105.303 71.7243 104.014 73.0136C102.724 74.303 102 76.0516 102 77.875C102 79.6984 102.724 81.447 104.014 82.7364C105.303 84.0257 107.052 84.75 108.875 84.75C110.698 84.75 112.447 84.0257 113.736 82.7364C115.026 81.447 115.75 79.6984 115.75 77.875ZM109.5 78.5L109.501 81.6287C109.501 81.7945 109.435 81.9535 109.318 82.0707C109.201 82.1879 109.042 82.2537 108.876 82.2537C108.71 82.2537 108.552 82.1879 108.434 82.0707C108.317 81.9535 108.251 81.7945 108.251 81.6287V78.5H105.12C104.954 78.5 104.795 78.4342 104.678 78.3169C104.561 78.1997 104.495 78.0408 104.495 77.875C104.495 77.7092 104.561 77.5503 104.678 77.4331C104.795 77.3158 104.954 77.25 105.12 77.25H108.25V74.125C108.25 73.9592 108.316 73.8003 108.433 73.6831C108.55 73.5658 108.709 73.5 108.875 73.5C109.041 73.5 109.2 73.5658 109.317 73.6831C109.434 73.8003 109.5 73.9592 109.5 74.125V77.25H112.621C112.787 77.25 112.946 77.3158 113.063 77.4331C113.18 77.5503 113.246 77.7092 113.246 77.875C113.246 78.0408 113.18 78.1997 113.063 78.3169C112.946 78.4342 112.787 78.5 112.621 78.5H109.5Z" fill="white"/>
<path d="M268.25 61.625H260.75C260.022 61.625 259.305 61.7944 258.654 62.1199C258.003 62.4453 257.437 62.9178 257 63.5C256.563 62.9178 255.997 62.4453 255.346 62.1199C254.695 61.7944 253.978 61.625 253.25 61.625H245.75C245.253 61.625 244.776 61.8225 244.424 62.1742C244.073 62.5258 243.875 63.0027 243.875 63.5V78.5C243.875 78.9973 244.073 79.4742 244.424 79.8258C244.776 80.1775 245.253 80.375 245.75 80.375H253.25C253.996 80.375 254.711 80.6713 255.239 81.1988C255.766 81.7262 256.062 82.4416 256.062 83.1875C256.062 83.4361 256.161 83.6746 256.337 83.8504C256.513 84.0262 256.751 84.125 257 84.125C257.249 84.125 257.487 84.0262 257.663 83.8504C257.839 83.6746 257.938 83.4361 257.938 83.1875C257.938 82.4416 258.234 81.7262 258.761 81.1988C259.289 80.6713 260.004 80.375 260.75 80.375H268.25C268.747 80.375 269.224 80.1775 269.576 79.8258C269.927 79.4742 270.125 78.9973 270.125 78.5V63.5C270.125 63.0027 269.927 62.5258 269.576 62.1742C269.224 61.8225 268.747 61.625 268.25 61.625ZM253.25 78.5H245.75V63.5H253.25C253.996 63.5 254.711 63.7963 255.239 64.3238C255.766 64.8512 256.062 65.5666 256.062 66.3125V79.4375C255.252 78.8275 254.264 78.4984 253.25 78.5ZM268.25 78.5H260.75C259.736 78.4984 258.748 78.8275 257.938 79.4375V66.3125C257.938 65.5666 258.234 64.8512 258.761 64.3238C259.289 63.7963 260.004 63.5 260.75 63.5H268.25V78.5ZM260.75 66.3125H265.438C265.686 66.3125 265.925 66.4113 266.1 66.5871C266.276 66.7629 266.375 67.0014 266.375 67.25C266.375 67.4986 266.276 67.7371 266.1 67.9129C265.925 68.0887 265.686 68.1875 265.438 68.1875H260.75C260.501 68.1875 260.263 68.0887 260.087 67.9129C259.911 67.7371 259.812 67.4986 259.812 67.25C259.812 67.0014 259.911 66.7629 260.087 66.5871C260.263 66.4113 260.501 66.3125 260.75 66.3125ZM266.375 71C266.375 71.2486 266.276 71.4871 266.1 71.6629C265.925 71.8387 265.686 71.9375 265.438 71.9375H260.75C260.501 71.9375 260.263 71.8387 260.087 71.6629C259.911 71.4871 259.812 71.2486 259.812 71C259.812 70.7514 259.911 70.5129 260.087 70.3371C260.263 70.1613 260.501 70.0625 260.75 70.0625H265.438C265.686 70.0625 265.925 70.1613 266.1 70.3371C266.276 70.5129 266.375 70.7514 266.375 71ZM266.375 74.75C266.375 74.9986 266.276 75.2371 266.1 75.4129C265.925 75.5887 265.686 75.6875 265.438 75.6875H260.75C260.501 75.6875 260.263 75.5887 260.087 75.4129C259.911 75.2371 259.812 74.9986 259.812 74.75C259.812 74.5014 259.911 74.2629 260.087 74.0871C260.263 73.9113 260.501 73.8125 260.75 73.8125H265.438C265.686 73.8125 265.925 73.9113 266.1 74.0871C266.276 74.2629 266.375 74.5014 266.375 74.75Z" fill="white"/>
<path d="M319 60C320.326 60 321.598 60.5268 322.536 61.4645C323.473 62.4021 324 63.6739 324 65C324 66.3261 323.473 67.5979 322.536 68.5355C321.598 69.4732 320.326 70 319 70C317.674 70 316.402 69.4732 315.464 68.5355C314.527 67.5979 314 66.3261 314 65C314 63.6739 314.527 62.4021 315.464 61.4645C316.402 60.5268 317.674 60 319 60ZM319 72.5C324.525 72.5 329 74.7375 329 77.5V80H309V77.5C309 74.7375 313.475 72.5 319 72.5Z" fill="white"/>
<circle cx="178.5" cy="27.5" r="27.5" fill="#2ECC71"/>
<path d="M178 18.25V35.75M169.25 27H186.75" stroke="white" stroke-width="1.66667" stroke-linecap="round" stroke-linejoin="round"/>
</svg>
