<svg width="30" height="30" viewBox="0 0 30 30" fill="none" xmlns="http://www.w3.org/2000/svg">
<circle cx="15" cy="15" r="15" fill="white"/>
<g clip-path="url(#clip0_1_881)">
<path d="M15.0001 24.8184C14.8651 24.8179 14.734 24.7728 14.6273 24.69C11.2295 22.05 8.88897 19.7767 7.25119 17.5339C5.16119 14.6678 4.68453 12.0217 5.83341 9.66893C6.6523 7.98837 9.00508 6.61337 11.7551 7.41393C13.0662 7.79265 14.2102 8.60485 15.0001 9.71781C15.79 8.60485 16.9339 7.79265 18.2451 7.41393C20.989 6.62559 23.3479 7.98837 24.1667 9.66893C25.3156 12.0217 24.839 14.6678 22.749 17.5339C21.1112 19.7767 18.7706 22.05 15.3729 24.69C15.2662 24.7728 15.1351 24.8179 15.0001 24.8184ZM10.1906 8.41004C9.53629 8.38457 8.88736 8.53779 8.31351 8.85324C7.73966 9.1687 7.26256 9.63448 6.93342 10.2006C5.98619 12.1439 6.41397 14.3073 8.24119 16.8067C10.183 19.3114 12.4569 21.54 15.0001 23.4311C17.5429 21.5419 19.8167 19.3153 21.759 16.8128C23.5923 14.3073 24.014 12.1439 23.0667 10.2067C22.4556 8.98448 20.6223 8.01281 18.5812 8.58726C17.9267 8.78068 17.32 9.10897 16.8001 9.55103C16.2801 9.99308 15.8585 10.5391 15.5623 11.1539C15.5163 11.266 15.4379 11.3619 15.3373 11.4293C15.2366 11.4968 15.1182 11.5328 14.997 11.5328C14.8759 11.5328 14.7574 11.4968 14.6568 11.4293C14.5561 11.3619 14.4778 11.266 14.4317 11.1539C14.1378 10.5376 13.7169 9.99026 13.1966 9.54794C12.6764 9.10561 12.0685 8.77823 11.4129 8.58726C11.0156 8.47188 10.6043 8.41224 10.1906 8.41004Z" fill="#B0B0B0"/>
</g>
<defs>
<clipPath id="clip0_1_881">
<rect width="22" height="22" fill="white" transform="translate(4 5)"/>
</clipPath>
</defs>
</svg>
