<svg width="30" height="30" viewBox="0 0 30 30" fill="none" xmlns="http://www.w3.org/2000/svg">
<g clip-path="url(#clip0_1_879)">
<path d="M10.3125 5.625V1.875C10.3125 1.62636 10.4113 1.3879 10.5871 1.21209C10.7629 1.03627 11.0014 0.9375 11.25 0.9375C11.4986 0.9375 11.7371 1.03627 11.9129 1.21209C12.0887 1.3879 12.1875 1.62636 12.1875 1.875V5.625C12.1875 5.87364 12.0887 6.1121 11.9129 6.28791C11.7371 6.46373 11.4986 6.5625 11.25 6.5625C11.0014 6.5625 10.7629 6.46373 10.5871 6.28791C10.4113 6.1121 10.3125 5.87364 10.3125 5.625ZM15 6.5625C15.2486 6.5625 15.4871 6.46373 15.6629 6.28791C15.8387 6.1121 15.9375 5.87364 15.9375 5.625V1.875C15.9375 1.62636 15.8387 1.3879 15.6629 1.21209C15.4871 1.03627 15.2486 0.9375 15 0.9375C14.7514 0.9375 14.5129 1.03627 14.3371 1.21209C14.1613 1.3879 14.0625 1.62636 14.0625 1.875V5.625C14.0625 5.87364 14.1613 6.1121 14.3371 6.28791C14.5129 6.46373 14.7514 6.5625 15 6.5625ZM18.75 6.5625C18.9986 6.5625 19.2371 6.46373 19.4129 6.28791C19.5887 6.1121 19.6875 5.87364 19.6875 5.625V1.875C19.6875 1.62636 19.5887 1.3879 19.4129 1.21209C19.2371 1.03627 18.9986 0.9375 18.75 0.9375C18.5014 0.9375 18.2629 1.03627 18.0871 1.21209C17.9113 1.3879 17.8125 1.62636 17.8125 1.875V5.625C17.8125 5.87364 17.9113 6.1121 18.0871 6.28791C18.2629 6.46373 18.5014 6.5625 18.75 6.5625ZM29.625 12L26.25 14.5312V21.5625C26.25 22.5571 25.8549 23.5109 25.1517 24.2141C24.4484 24.9174 23.4946 25.3125 22.5 25.3125H7.5C6.50544 25.3125 5.55161 24.9174 4.84835 24.2141C4.14509 23.5109 3.75 22.5571 3.75 21.5625V14.5312L0.375004 12C0.176091 11.8508 0.0445892 11.6287 0.00942618 11.3826C-0.0257369 11.1364 0.0383196 10.8864 0.187504 10.6875C0.336688 10.4886 0.55878 10.3571 0.804921 10.3219C1.05106 10.2868 1.30109 10.3508 1.5 10.5L3.75 12.1875V10.3125C3.75 9.81522 3.94755 9.33831 4.29918 8.98668C4.65081 8.63504 5.12772 8.4375 5.625 8.4375H24.375C24.8723 8.4375 25.3492 8.63504 25.7008 8.98668C26.0525 9.33831 26.25 9.81522 26.25 10.3125V12.1875L28.5 10.5C28.6989 10.3508 28.9489 10.2868 29.1951 10.3219C29.4412 10.3571 29.6633 10.4886 29.8125 10.6875C29.9617 10.8864 30.0257 11.1364 29.9906 11.3826C29.9554 11.6287 29.8239 11.8508 29.625 12ZM24.375 10.3125H5.625V21.5625C5.625 22.0598 5.82255 22.5367 6.17418 22.8883C6.52581 23.24 7.00272 23.4375 7.5 23.4375H22.5C22.9973 23.4375 23.4742 23.24 23.8258 22.8883C24.1775 22.5367 24.375 22.0598 24.375 21.5625V10.3125Z" fill="#F39C12"/>
</g>
<defs>
<clipPath id="clip0_1_879">
<rect width="30" height="30" fill="white"/>
</clipPath>
</defs>
</svg>
