<svg width="42" height="26" viewBox="0 0 42 26" fill="none" xmlns="http://www.w3.org/2000/svg">
<rect width="42" height="26" rx="13" fill="#2ECC71" fill-opacity="0.95"/>
<path d="M20.5303 19.5303C20.2374 19.8232 19.7626 19.8232 19.4697 19.5303L13.4697 13.5303C13.4213 13.4819 13.384 13.4268 13.3516 13.3701C13.336 13.343 13.3197 13.3162 13.3076 13.2871C13.2869 13.2371 13.2721 13.1854 13.2627 13.1328C13.255 13.0897 13.25 13.0454 13.25 13C13.25 12.955 13.2551 12.911 13.2627 12.8682C13.2721 12.8155 13.287 12.7639 13.3076 12.7139C13.3197 12.6847 13.3361 12.658 13.3516 12.6309C13.384 12.5739 13.4211 12.5183 13.4697 12.4697L19.4697 6.46973C19.7626 6.17683 20.2374 6.17683 20.5303 6.46973C20.8232 6.76262 20.8232 7.23738 20.5303 7.53027L15.8105 12.25L28 12.25C28.4142 12.25 28.75 12.5858 28.75 13C28.75 13.4142 28.4142 13.75 28 13.75L15.8105 13.75L20.5303 18.4697C20.8232 18.7626 20.8232 19.2374 20.5303 19.5303Z" fill="#D35400" stroke="white" stroke-width="1.5" stroke-linecap="round" stroke-linejoin="round"/>
</svg>
