<svg width="25" height="26" viewBox="0 0 25 26" fill="none" xmlns="http://www.w3.org/2000/svg">
<path d="M18.7499 14.0812H13.5416V19.4979C13.5416 19.7852 13.4318 20.0608 13.2365 20.2639C13.0411 20.4671 12.7762 20.5812 12.4999 20.5812C12.2237 20.5812 11.9587 20.4671 11.7633 20.2639C11.568 20.0608 11.4583 19.7852 11.4583 19.4979V14.0812H6.24992C5.97365 14.0812 5.7087 13.9671 5.51335 13.7639C5.318 13.5608 5.20825 13.2852 5.20825 12.9979C5.20825 12.7106 5.318 12.435 5.51335 12.2319C5.7087 12.0287 5.97365 11.9146 6.24992 11.9146H11.4583V6.49788C11.4583 6.21057 11.568 5.93502 11.7633 5.73185C11.9587 5.52869 12.2237 5.41455 12.4999 5.41455C12.7762 5.41455 13.0411 5.52869 13.2365 5.73185C13.4318 5.93502 13.5416 6.21057 13.5416 6.49788V11.9146H18.7499C19.0262 11.9146 19.2911 12.0287 19.4865 12.2319C19.6818 12.435 19.7916 12.7106 19.7916 12.9979C19.7916 13.2852 19.6818 13.5608 19.4865 13.7639C19.2911 13.9671 19.0262 14.0812 18.7499 14.0812Z" fill="#F39C12"/>
</svg>
