<svg width="30" height="30" viewBox="0 0 30 30" fill="none" xmlns="http://www.w3.org/2000/svg">
<path d="M11.0912 16.125L3.54118 8.57496C2.87383 7.90745 2.49898 7.00216 2.4991 6.05827C2.49921 5.11438 2.87429 4.20919 3.5418 3.54184C4.20932 2.87449 5.1146 2.49964 6.05849 2.49976C7.00239 2.49987 7.90758 2.87495 8.57493 3.54246L16.1237 11.0912M25.6862 25.685C24.1749 27.1962 19.8462 23.8725 17.6337 21.66C15.4212 19.4475 11.0912 14.11 12.6012 12.6012M25.6862 25.685C27.1974 24.175 23.8724 19.8475 21.6599 17.6337C19.4462 15.4212 14.1112 11.09 12.6012 12.6012M25.6862 25.685C22.9074 28.465 17.9012 27.9662 14.7049 24.77C11.5087 21.5725 9.82243 15.38 12.6012 12.6012M25.6862 25.685C28.4662 22.9062 27.9662 17.9012 24.7699 14.705C21.5737 11.5075 15.3799 9.82121 12.6012 12.6012" stroke="#F39C12" stroke-width="1.875"/>
</svg>
