<svg width="35" height="35" viewBox="0 0 35 35" fill="none" xmlns="http://www.w3.org/2000/svg">
<path fill-rule="evenodd" clip-rule="evenodd" d="M16.3815 5.32865C20.405 1.30657 26.9471 0.466569 30.7417 4.25824C34.5334 8.0499 33.6963 14.5934 29.6727 18.6155C26.9777 21.3105 22.6217 23.1553 18.9044 23.0226C18.579 23.0113 18.2543 22.9835 17.9317 22.9395L10.0042 30.867C9.22258 31.6308 8.17131 32.0557 7.07845 32.0494C5.98559 32.0431 4.93928 31.6062 4.1665 30.8334C3.39371 30.0607 2.95679 29.0143 2.95051 27.9215C2.94423 26.8286 3.36909 25.7773 4.13294 24.9957L12.059 17.0697C12.0151 16.748 11.9873 16.4244 11.9759 16.0999C11.8432 12.3812 13.6865 8.02365 16.3815 5.32865ZM17.9288 6.87449C20.3204 4.48282 23.5375 3.59907 26.18 4.19115C25.7835 4.37982 25.3961 4.58714 25.0192 4.8124C23.1117 5.94407 21.1327 7.62407 19.7984 8.95699C18.4684 10.2884 16.5069 12.5489 15.0909 14.7262C14.7584 15.238 14.4448 15.7616 14.175 16.2764C14.1693 16.1914 14.1649 16.1063 14.1619 16.0212C14.0525 12.9616 15.6246 9.18011 17.9288 6.87449ZM28.3384 5.73261C28.9348 5.61011 29.1259 5.74136 29.1929 5.80553C29.26 5.87261 29.3898 6.06657 29.2673 6.66157C29.1477 7.25074 28.8152 8.00615 28.3063 8.86365C27.2957 10.5699 25.7454 12.4059 24.4971 13.6543C23.2459 14.9041 21.1036 16.7605 19.0823 18.0759C18.0629 18.738 17.1398 19.2193 16.4136 19.4409C16.0519 19.5518 15.7967 19.5795 15.6363 19.5678C15.5894 19.5658 15.5432 19.5564 15.4992 19.5401C15.49 19.5371 15.4815 19.5321 15.4744 19.5255C15.4677 19.5179 15.4627 19.509 15.4598 19.4993C15.4437 19.4558 15.4343 19.41 15.4321 19.3637C15.4204 19.2032 15.4467 18.948 15.5575 18.5864C15.7807 17.8601 16.2619 16.937 16.9254 15.9176C18.2394 13.8978 20.0959 11.7541 21.3456 10.5043C22.5954 9.25594 24.4315 7.70428 26.1363 6.69365C26.9952 6.18324 27.7507 5.85365 28.3384 5.73261ZM20.2738 19.9091C19.7634 20.2416 19.2398 20.5551 18.725 20.8249C18.8096 20.8293 18.8942 20.8351 18.9802 20.838C22.0398 20.9474 25.8198 19.3753 28.124 17.0712C30.5171 14.678 31.4023 11.4624 30.8088 8.8199C30.62 9.21638 30.4127 9.60376 30.1875 9.98074C29.0559 11.8882 27.3773 13.8672 26.0429 15.2016C24.7115 16.533 22.4511 18.493 20.2738 19.9091Z" fill="#F39C12"/>
</svg>
