<svg width="35" height="35" viewBox="0 0 35 35" fill="none" xmlns="http://www.w3.org/2000/svg">
<path fill-rule="evenodd" clip-rule="evenodd" d="M7.9245 3.64575C6.78971 3.64575 5.70139 4.09655 4.89897 4.89897C4.09655 5.70139 3.64575 6.78971 3.64575 7.9245C3.64575 8.21458 3.53052 8.49278 3.3254 8.6979C3.12028 8.90302 2.84208 9.01825 2.552 9.01825C2.26192 9.01825 1.98372 8.90302 1.7786 8.6979C1.57349 8.49278 1.45825 8.21458 1.45825 7.9245C1.45825 6.20955 2.13952 4.56483 3.35217 3.35217C4.56483 2.13952 6.20955 1.45825 7.9245 1.45825C9.63946 1.45825 11.2842 2.13952 12.4968 3.35217C13.7095 4.56483 14.3908 6.20955 14.3908 7.9245V18.0045C14.9617 17.6729 15.5622 17.3951 16.1845 17.1747C18.1285 16.4674 20.6266 16.0416 22.9687 16.0416C25.3137 16.0416 27.6426 16.4689 29.4247 17.1893C30.3114 17.548 31.1164 18.0016 31.7201 18.5587C32.3195 19.1128 32.8124 19.8624 32.8124 20.7812V22.5078C32.8124 25.2408 31.7268 27.8618 29.7943 29.7943C27.8618 31.7268 25.2408 32.8124 22.5078 32.8124C19.7749 32.8124 17.1539 31.7268 15.2214 29.7943C13.2889 27.8618 12.2033 25.2408 12.2033 22.5078V7.9245C12.2033 7.36261 12.0926 6.80622 11.8776 6.2871C11.6625 5.76797 11.3474 5.29629 10.95 4.89897C10.5527 4.50165 10.081 4.18648 9.56191 3.97145C9.04279 3.75642 8.48639 3.64575 7.9245 3.64575ZM30.5141 23.8583C30.1913 25.7729 29.193 27.5084 27.7003 28.7501C26.2076 29.9918 24.3193 30.6574 22.378 30.6261C20.4366 30.5949 18.5707 29.869 17.1187 28.5799C15.6666 27.2909 14.7247 25.5241 14.4637 23.6001C14.9814 23.9005 15.5676 24.163 16.1845 24.3876C18.1285 25.0949 20.6266 25.5208 22.9687 25.5208C25.3137 25.5208 27.6426 25.0935 29.4247 24.373C29.8053 24.2185 30.1714 24.0464 30.5141 23.8568V23.8583ZM30.6249 20.7812C30.6249 20.6937 30.5812 20.4837 30.2355 20.1658C29.8943 19.8493 29.346 19.5183 28.6022 19.2178C27.1235 18.6185 25.0774 18.2291 22.9687 18.2291C20.857 18.2291 18.6155 18.6185 16.9326 19.231C16.0868 19.5387 15.4422 19.8814 15.031 20.2139C14.5993 20.561 14.5833 20.7608 14.5833 20.7812C14.5833 20.8016 14.5993 21.0014 15.031 21.3499C15.4422 21.681 16.0868 22.0237 16.9326 22.3314C18.6155 22.9439 20.857 23.3333 22.9687 23.3333C25.0774 23.3333 27.1235 22.9439 28.6037 22.3445C29.3474 22.0441 29.8943 21.713 30.237 21.3966C30.5797 21.0787 30.6249 20.8687 30.6249 20.7812Z" fill="#F39C12"/>
</svg>
