<svg width="30" height="30" viewBox="0 0 30 30" fill="none" xmlns="http://www.w3.org/2000/svg">
<path d="M10.3845 7.24954C10.8461 6.39615 11.5352 5.68739 12.3753 5.20192C13.2154 4.71645 14.1735 4.47327 15.1434 4.49938C16.1133 4.52548 17.057 4.81985 17.8697 5.3498C18.6825 5.87975 19.3324 6.62455 19.7475 7.50153C18.6549 7.52633 17.5932 7.86878 16.6921 8.48704C15.7909 9.10529 15.0893 9.97261 14.673 10.983C14.2893 10.3433 13.8295 9.75251 13.3035 9.22354C12.4583 8.39386 11.4692 7.72496 10.3845 7.24954ZM25.488 13.5C25.5735 12.2198 25.219 10.9489 24.4832 9.89775C23.7474 8.84663 22.6746 8.07846 21.4425 7.72053C21.0382 6.43969 20.2611 5.30851 19.2106 4.47157C18.1601 3.63463 16.8839 3.12996 15.5451 3.02207C14.2063 2.91418 12.8658 3.20797 11.6948 3.86589C10.5239 4.52381 9.57568 5.51596 8.9715 6.71554C8.37477 6.53005 7.7671 6.38176 7.152 6.27154C6.11158 6.0843 5.05611 5.99341 3.999 6.00004C3.90696 6.00171 3.81495 6.00471 3.723 6.00904H3.717C3.53363 6.02007 3.36065 6.09789 3.23075 6.22779C3.10085 6.35769 3.02303 6.53066 3.012 6.71404V6.71554C2.99959 7.05191 2.99909 7.38862 3.0105 7.72504C3.03 8.33854 3.0945 9.19054 3.2685 10.1535C3.453 11.1765 3.765 12.3495 4.296 13.4985H3.75C3.55109 13.4985 3.36032 13.5776 3.21967 13.7182C3.07902 13.8589 3 14.0496 3 14.2485V14.9985C3 18.1811 4.26428 21.2334 6.51472 23.4838C8.76516 25.7343 11.8174 26.9985 15 26.9985C18.1826 26.9985 21.2348 25.7343 23.4853 23.4838C25.7357 21.2334 27 18.1811 27 14.9985V14.2485C27 14.0496 26.921 13.8589 26.7803 13.7182C26.6397 13.5776 26.4489 13.4985 26.25 13.4985H25.488V13.5ZM5.976 13.5C5.325 12.327 4.953 11.0415 4.746 9.88804C4.60433 9.10039 4.5231 8.30307 4.503 7.50304L4.674 7.50904C5.232 7.52854 6.009 7.58854 6.885 7.74754C8.655 8.06704 10.734 8.77504 12.243 10.284C13.167 11.208 13.7925 12.348 14.2125 13.5H11.562L8.781 10.719C8.71127 10.6494 8.6285 10.5942 8.53743 10.5565C8.44636 10.5189 8.34877 10.4995 8.25022 10.4996C8.15167 10.4997 8.05411 10.5192 7.96309 10.5569C7.87207 10.5947 7.78938 10.6501 7.71975 10.7198C7.65012 10.7895 7.5949 10.8723 7.55725 10.9634C7.5196 11.0544 7.50026 11.152 7.50033 11.2506C7.5004 11.3491 7.51988 11.4467 7.55766 11.5377C7.59543 11.6287 7.65077 11.7114 7.7205 11.781L9.441 13.5H5.976ZM15.798 13.5C15.7848 13.4595 15.7713 13.419 15.7575 13.3785C15.7249 12.8126 15.8092 12.2461 16.0053 11.7142C16.2013 11.1824 16.5049 10.6966 16.897 10.2873C17.2892 9.87803 17.7614 9.55393 18.2844 9.33527C18.8074 9.11661 19.3698 9.00808 19.9366 9.01645C20.5033 9.02482 21.0623 9.14991 21.5786 9.38392C22.0949 9.61793 22.5574 9.95583 22.9373 10.3765C23.3171 10.7972 23.6062 11.2917 23.7865 11.8291C23.9668 12.3666 24.0343 12.9353 23.985 13.5H15.7995H15.798ZM4.5 15H25.5C25.5 16.0425 25.3485 17.049 25.065 18H4.935C4.64567 17.0263 4.49915 16.0158 4.5 15ZM15 25.5C13.0126 25.5004 11.066 24.9368 9.38626 23.8747C7.70654 22.8126 6.36272 21.2956 5.511 19.5H24.489C23.6373 21.2956 22.2935 22.8126 20.6137 23.8747C18.934 24.9368 16.9874 25.5004 15 25.5Z" fill="#F39C12"/>
</svg>
