<svg width="30" height="30" viewBox="0 0 30 30" fill="none" xmlns="http://www.w3.org/2000/svg">
<path d="M7.70122 21.2613L22.5 21.25M15 3.75C17.3975 3.75 19.4 5.4375 19.8875 7.68875C20.5213 7.51721 21.1828 7.4722 21.8341 7.55629C22.4853 7.64039 23.1137 7.85193 23.6832 8.17885C24.2527 8.50577 24.7522 8.94166 25.1533 9.46164C25.5543 9.98162 25.8491 10.5755 26.0206 11.2094C26.1921 11.8432 26.2371 12.5047 26.153 13.156C26.069 13.8072 25.8574 14.4356 25.5305 15.0051C25.2036 15.5746 24.7677 16.0741 24.2477 16.4752C23.7277 16.8763 23.1338 17.171 22.5 17.3425V26.25H7.49997V17.3425C6.86609 17.1708 6.27225 16.8759 5.75233 16.4747C5.23242 16.0735 4.79661 15.5738 4.46981 15.0042C4.14301 14.4346 3.9316 13.8061 3.84766 13.1548C3.76372 12.5035 3.80889 11.842 3.98059 11.2081C4.1523 10.5743 4.44717 9.9804 4.84838 9.46049C5.24958 8.94057 5.74927 8.50477 6.31889 8.17797C6.88852 7.85116 7.51694 7.63976 8.16828 7.55582C8.81961 7.47188 9.48109 7.51705 10.115 7.68875C10.3573 6.57321 10.974 5.57416 11.8627 4.85764C12.7513 4.14111 13.8584 3.75025 15 3.75Z" stroke="#F39C12" stroke-width="1.66667" stroke-linecap="round" stroke-linejoin="round"/>
</svg>
