<svg width="35" height="35" viewBox="0 0 35 35" fill="none" xmlns="http://www.w3.org/2000/svg">
<path d="M11.6666 2.91675H23.3333M13.1249 2.91675V6.98404C13.1249 8.13581 12.7839 9.2618 12.1449 10.2201L11.1883 11.6551C10.549 12.6138 10.208 13.7403 10.2083 14.8926V29.1667C10.2083 29.9403 10.5155 30.6822 11.0625 31.2291C11.6095 31.7761 12.3514 32.0834 13.1249 32.0834H21.8749C22.6485 32.0834 23.3903 31.7761 23.9373 31.2291C24.4843 30.6822 24.7916 29.9403 24.7916 29.1667V14.8911C24.7916 13.7393 24.4506 12.6134 23.8116 11.6551L22.8549 10.2201C22.2157 9.26139 21.8747 8.13485 21.8749 6.98258V2.91675" stroke="#F39C12" stroke-width="2.5" stroke-linecap="round" stroke-linejoin="round"/>
<path d="M10.2083 21.8752C11.3629 21.3916 12.6023 21.1426 13.8541 21.1426C15.1059 21.1426 16.3452 21.3916 17.4999 21.8752C18.6545 22.3589 19.8939 22.608 21.1458 22.608C22.3976 22.608 23.637 22.3589 24.7916 21.8752" stroke="#F39C12" stroke-width="2.5" stroke-linecap="round" stroke-linejoin="round"/>
</svg>
