<svg width="30" height="30" viewBox="0 0 30 30" fill="none" xmlns="http://www.w3.org/2000/svg">
<path d="M6.74188 1.28735V1.83479C6.74188 7.8086 8.9777 12.947 12.387 14.8481V15.2051C8.97764 17.1062 6.74182 22.2446 6.74182 28.2184V28.7659H23.5435V28.2184C23.5435 22.2095 21.2698 17.0696 17.8288 15.1996V14.8536C21.2696 12.9834 23.5435 7.84341 23.5435 1.83474V1.28735H6.7417H6.74188ZM7.85146 2.38218H22.434C22.2888 8.03325 19.9296 12.6667 17.047 14.0368L16.7339 14.1852V15.8698L17.0471 16.0181C19.9295 17.3882 22.2886 22.0203 22.434 27.6709H7.85146C7.99537 22.0519 10.3197 17.4125 13.1762 16.0144L13.4838 15.8643V14.1889L13.1762 14.0388C10.3198 12.6407 7.99531 8.0012 7.85146 2.38218ZM20.3704 7.42856C16.995 9.05806 13.0739 9.05981 9.96635 7.66851C10.825 10.6512 12.5337 12.7742 14.544 13.125C14.4502 13.2489 14.3994 13.4 14.3993 13.5554C14.3993 13.9515 14.7209 14.2731 15.1171 14.2731C15.5133 14.2731 15.8349 13.9515 15.8349 13.5554C15.8349 13.396 15.7817 13.2496 15.6939 13.1306C17.7696 12.786 19.5311 10.5483 20.3704 7.42856ZM15.1171 15.1539C14.7209 15.1539 14.3993 15.4755 14.3993 15.8717C14.3993 16.2679 14.7209 16.5895 15.1171 16.5895C15.5133 16.5895 15.8349 16.2679 15.8349 15.8717C15.8349 15.4755 15.5133 15.1539 15.1171 15.1539ZM15.1171 17.4555C14.7209 17.4555 14.3993 17.7772 14.3993 18.1733C14.3993 18.5695 14.7209 18.891 15.1171 18.891C15.5133 18.891 15.8349 18.5695 15.8349 18.1733C15.8349 17.7772 15.5133 17.4555 15.1171 17.4555ZM15.1171 19.7719C14.7209 19.7719 14.3993 20.0934 14.3993 20.4896C14.3993 20.8857 14.7209 21.2074 15.1171 21.2074C15.5133 21.2074 15.8349 20.8857 15.8349 20.4896C15.8349 20.0934 15.5133 19.7719 15.1171 19.7719ZM15.1244 22.1101C13.7645 22.1265 12.418 23.6201 10.6822 26.5431H19.6471C17.8586 23.5546 16.4844 22.0937 15.1244 22.1101Z" fill="#F39C12"/>
</svg>
