<svg width="35" height="35" viewBox="0 0 35 35" fill="none" xmlns="http://www.w3.org/2000/svg">
<path d="M17.5001 30.625C14.6563 30.625 12.2438 29.6343 10.2624 27.6529C8.28099 25.6715 7.29078 23.2594 7.29175 20.4167C7.29175 18.5451 7.60189 16.6615 8.22217 14.7656C8.84244 12.8698 9.64453 11.1499 10.6284 9.60604C11.6123 8.06312 12.7119 6.80556 13.9272 5.83333C15.1424 4.86111 16.3334 4.375 17.5001 4.375C18.6911 4.375 19.8883 4.86111 21.092 5.83333C22.2956 6.80556 23.3893 8.06361 24.3732 9.6075C25.3571 11.1504 26.1592 12.8698 26.7795 14.7656C27.3997 16.6615 27.7094 18.5451 27.7084 20.4167C27.7084 23.2604 26.7177 25.673 24.7363 27.6544C22.7549 29.6358 20.3429 30.626 17.5001 30.625ZM17.5001 27.7083C19.5174 27.7083 21.2373 26.9972 22.6597 25.5748C24.082 24.1524 24.7927 22.4331 24.7917 20.4167C24.7917 19.0312 24.5545 17.5729 24.0801 16.0417C23.6056 14.5104 23.0102 13.0944 22.2936 11.7935C21.5771 10.4937 20.7935 9.4184 19.9428 8.56771C19.0921 7.71701 18.2779 7.29167 17.5001 7.29167C16.7466 7.29167 15.9382 7.71701 15.0749 8.56771C14.2115 9.4184 13.4221 10.4937 12.7065 11.7935C11.989 13.0944 11.3936 14.5104 10.9201 16.0417C10.4466 17.5729 10.2094 19.0312 10.2084 20.4167C10.2084 22.434 10.9196 24.1539 12.342 25.5763C13.7643 26.9986 15.4837 27.7093 17.5001 27.7083ZM18.9584 26.25C19.3716 26.25 19.7182 26.11 19.9982 25.83C20.2782 25.55 20.4177 25.2039 20.4167 24.7917C20.4167 24.3785 20.2767 24.0319 19.9967 23.7519C19.7167 23.4719 19.3706 23.3324 18.9584 23.3333C17.7431 23.3333 16.7102 22.908 15.8595 22.0573C15.0088 21.2066 14.5834 20.1736 14.5834 18.9583C14.5834 18.5451 14.4434 18.1985 14.1634 17.9185C13.8834 17.6385 13.5373 17.499 13.1251 17.5C12.7119 17.5 12.3653 17.64 12.0853 17.92C11.8053 18.2 11.6658 18.5461 11.6667 18.9583C11.6667 20.9757 12.3779 22.6956 13.8003 24.1179C15.2227 25.5403 16.942 26.251 18.9584 26.25Z" fill="#F39C12"/>
</svg>
