<svg width="16" height="16" viewBox="0 0 16 16" fill="none" xmlns="http://www.w3.org/2000/svg">
<path d="M2.00004 3.33329V2.66663C1.82323 2.66663 1.65366 2.73686 1.52864 2.86189C1.40361 2.98691 1.33337 3.15648 1.33337 3.33329H2.00004ZM14 3.33329H14.6667C14.6667 3.15648 14.5965 2.98691 14.4714 2.86189C14.3464 2.73686 14.1769 2.66663 14 2.66663V3.33329ZM2.00004 3.99996H14V2.66663H2.00004V3.99996ZM13.3334 3.33329V11.3333H14.6667V3.33329H13.3334ZM12.6667 12H3.33337V13.3333H12.6667V12ZM2.66671 11.3333V3.33329H1.33337V11.3333H2.66671ZM3.33337 12C3.15656 12 2.98699 11.9297 2.86197 11.8047C2.73695 11.6797 2.66671 11.5101 2.66671 11.3333H1.33337C1.33337 11.8637 1.54409 12.3724 1.91916 12.7475C2.29423 13.1226 2.80294 13.3333 3.33337 13.3333V12ZM13.3334 11.3333C13.3334 11.5101 13.2631 11.6797 13.1381 11.8047C13.0131 11.9297 12.8435 12 12.6667 12V13.3333C13.1971 13.3333 13.7058 13.1226 14.0809 12.7475C14.456 12.3724 14.6667 11.8637 14.6667 11.3333H13.3334Z" fill="#FF9955"/>
<path d="M2 3.33325L8 9.33325L14 3.33325" stroke="#FF9955" stroke-width="2" stroke-linecap="round" stroke-linejoin="round"/>
</svg>
