<svg width="40" height="40" viewBox="0 0 40 40" fill="none" xmlns="http://www.w3.org/2000/svg">
<rect width="40" height="40" rx="8" fill="#2BEE4B" fill-opacity="0.2"/>
<path d="M20 25.8333C20.3403 25.8333 20.6279 25.7159 20.8628 25.4809C21.0978 25.2459 21.2153 24.9583 21.2153 24.6181C21.2153 24.2778 21.0978 23.9902 20.8628 23.7552C20.6279 23.5203 20.3403 23.4028 20 23.4028C19.6597 23.4028 19.3721 23.5203 19.1372 23.7552C18.9022 23.9902 18.7847 24.2778 18.7847 24.6181C18.7847 24.9583 18.9022 25.2459 19.1372 25.4809C19.3721 25.7159 19.6597 25.8333 20 25.8333ZM19.125 22.0903H20.9236C20.9236 21.5069 20.9884 21.0775 21.1181 20.8021C21.2477 20.5266 21.5231 20.1782 21.9444 19.7569C22.5116 19.1898 22.9126 18.7159 23.1476 18.3351C23.3825 17.9543 23.5 17.5208 23.5 17.0347C23.5 16.1759 23.2083 15.4832 22.625 14.9566C22.0417 14.43 21.2558 14.1667 20.2674 14.1667C19.3762 14.1667 18.6186 14.3854 17.9948 14.8229C17.3709 15.2604 16.9375 15.8681 16.6944 16.6458L18.2986 17.2778C18.412 16.8403 18.6389 16.4878 18.9792 16.2205C19.3194 15.9531 19.7164 15.8194 20.1701 15.8194C20.6076 15.8194 20.9722 15.9369 21.2639 16.1719C21.5556 16.4068 21.7014 16.7188 21.7014 17.1076C21.7014 17.3831 21.6123 17.6748 21.434 17.9826C21.2558 18.2905 20.956 18.6308 20.5347 19.0035C20 19.4734 19.6314 19.923 19.4288 20.3524C19.2263 20.7818 19.125 21.3611 19.125 22.0903ZM13.1944 28.75C12.6597 28.75 12.202 28.5596 11.8212 28.1788C11.4404 27.798 11.25 27.3403 11.25 26.8056V13.1944C11.25 12.6597 11.4404 12.202 11.8212 11.8212C12.202 11.4404 12.6597 11.25 13.1944 11.25H26.8056C27.3403 11.25 27.798 11.4404 28.1788 11.8212C28.5596 12.202 28.75 12.6597 28.75 13.1944V26.8056C28.75 27.3403 28.5596 27.798 28.1788 28.1788C27.798 28.5596 27.3403 28.75 26.8056 28.75H13.1944ZM13.1944 26.8056H26.8056V13.1944H13.1944V26.8056Z" fill="#2BEE4B"/>
</svg>
