<svg width="40" height="40" viewBox="0 0 40 40" fill="none" xmlns="http://www.w3.org/2000/svg">
<rect width="40" height="40" rx="8" fill="#2BEE4B" fill-opacity="0.2"/>
<path d="M16.6944 30.2085L14.8472 27.0974L11.3472 26.3196L11.6875 22.7224L9.30554 20.0002L11.6875 17.2779L11.3472 13.6807L14.8472 12.9029L16.6944 9.79183L20 11.2015L23.3055 9.79183L25.1528 12.9029L28.6528 13.6807L28.3125 17.2779L30.6944 20.0002L28.3125 22.7224L28.6528 26.3196L25.1528 27.0974L23.3055 30.2085L20 28.7988L16.6944 30.2085ZM17.5208 27.7293L20 26.6599L22.5278 27.7293L23.8889 25.396L26.5625 24.7641L26.3194 22.0418L28.118 20.0002L26.3194 17.9099L26.5625 15.1877L23.8889 14.6043L22.4792 12.271L20 13.3404L17.4722 12.271L16.1111 14.6043L13.4375 15.1877L13.6805 17.9099L11.8819 20.0002L13.6805 22.0418L13.4375 24.8127L16.1111 25.396L17.5208 27.7293ZM18.9792 23.4516L24.4722 17.9585L23.1111 16.5488L18.9792 20.6807L16.8889 18.6391L15.5278 20.0002L18.9792 23.4516Z" fill="#2BEE4B"/>
</svg>
