<svg width="44" height="24" viewBox="0 0 44 24" fill="none" xmlns="http://www.w3.org/2000/svg">
<rect width="44" height="24" rx="12" fill="#E5E7EB"/>
<mask id="path-2-inside-1_1_1835" fill="white">
<path d="M2 12C2 6.47715 6.47715 2 12 2C17.5228 2 22 6.47715 22 12C22 17.5228 17.5228 22 12 22C6.47715 22 2 17.5228 2 12Z"/>
</mask>
<path d="M2 12C2 6.47715 6.47715 2 12 2C17.5228 2 22 6.47715 22 12C22 17.5228 17.5228 22 12 22C6.47715 22 2 17.5228 2 12Z" fill="white"/>
<path d="M12 22V21C7.02944 21 3 16.9706 3 12H2H1C1 18.0751 5.92487 23 12 23V22ZM22 12H21C21 16.9706 16.9706 21 12 21V22V23C18.0751 23 23 18.0751 23 12H22ZM12 2V3C16.9706 3 21 7.02944 21 12H22H23C23 5.92487 18.0751 1 12 1V2ZM12 2V1C5.92487 1 1 5.92487 1 12H2H3C3 7.02944 7.02944 3 12 3V2Z" fill="#D1D5DB" mask="url(#path-2-inside-1_1_1835)"/>
</svg>
