<svg width="40" height="40" viewBox="0 0 40 40" fill="none" xmlns="http://www.w3.org/2000/svg">
<rect width="40" height="40" rx="8" fill="#2BEE4B" fill-opacity="0.2"/>
<path d="M20 29.7222L19.7569 26.8055H19.5139C17.213 26.8055 15.2604 26.0034 13.6562 24.3993C12.0521 22.7951 11.25 20.8425 11.25 18.5416C11.25 16.2407 12.0521 14.2881 13.6562 12.684C15.2604 11.0798 17.213 10.2777 19.5139 10.2777C20.6644 10.2777 21.7378 10.4924 22.7344 10.9218C23.7309 11.3512 24.6059 11.9427 25.3594 12.6961C26.1128 13.4496 26.7043 14.3246 27.1337 15.3211C27.5631 16.3177 27.7778 17.3911 27.7778 18.5416C27.7778 19.7569 27.5793 20.9236 27.1823 22.0416C26.7853 23.1597 26.2425 24.1967 25.5538 25.1527C24.8652 26.1087 24.0469 26.9756 23.099 27.7534C22.151 28.5312 21.1181 29.1874 20 29.7222ZM21.9444 26.1736C23.0949 25.2013 24.0307 24.063 24.7517 22.7586C25.4728 21.4542 25.8333 20.0486 25.8333 18.5416C25.8333 16.7754 25.2216 15.2806 23.9983 14.0572C22.7749 12.8339 21.2801 12.2222 19.5139 12.2222C17.7477 12.2222 16.2529 12.8339 15.0295 14.0572C13.8061 15.2806 13.1944 16.7754 13.1944 18.5416C13.1944 20.3078 13.8061 21.8026 15.0295 23.026C16.2529 24.2494 17.7477 24.8611 19.5139 24.8611H21.9444V26.1736ZM19.4896 23.8645C19.765 23.8645 20 23.7673 20.1944 23.5729C20.3889 23.3784 20.4861 23.1435 20.4861 22.868C20.4861 22.5925 20.3889 22.3576 20.1944 22.1631C20 21.9687 19.765 21.8715 19.4896 21.8715C19.2141 21.8715 18.9792 21.9687 18.7847 22.1631C18.5903 22.3576 18.4931 22.5925 18.4931 22.868C18.4931 23.1435 18.5903 23.3784 18.7847 23.5729C18.9792 23.7673 19.2141 23.8645 19.4896 23.8645ZM18.7847 20.7777H20.2431C20.2431 20.2916 20.2917 19.9513 20.3889 19.7569C20.4861 19.5624 20.794 19.206 21.3125 18.6874C21.6042 18.3958 21.8472 18.0798 22.0417 17.7395C22.2361 17.3993 22.3333 17.0347 22.3333 16.6458C22.3333 15.8194 22.0538 15.1996 21.4948 14.7864C20.9358 14.3732 20.2755 14.1666 19.5139 14.1666C18.8009 14.1666 18.2014 14.3651 17.7153 14.7621C17.2292 15.1591 16.8889 15.6411 16.6944 16.2083L18.0556 16.743C18.1366 16.4675 18.2905 16.1961 18.5174 15.9288C18.7442 15.6614 19.0764 15.5277 19.5139 15.5277C19.9514 15.5277 20.2795 15.6493 20.4983 15.8923C20.717 16.1354 20.8264 16.4027 20.8264 16.6944C20.8264 16.9699 20.7454 17.217 20.5833 17.4357C20.4213 17.6545 20.2269 17.8773 20 18.1041C19.4329 18.5902 19.0885 18.9751 18.967 19.2586C18.8455 19.5422 18.7847 20.0486 18.7847 20.7777Z" fill="#2BEE4B"/>
</svg>
