<svg width="40" height="40" viewBox="0 0 40 40" fill="none" xmlns="http://www.w3.org/2000/svg">
<rect width="40" height="40" rx="8" fill="#2BEE4B" fill-opacity="0.2"/>
<path d="M19.0278 24.8611H20.9722V19.0277H19.0278V24.8611ZM20 17.0833C20.2755 17.0833 20.5064 16.9901 20.6927 16.8038C20.879 16.6174 20.9722 16.3865 20.9722 16.1111C20.9722 15.8356 20.879 15.6047 20.6927 15.4183C20.5064 15.232 20.2755 15.1388 20 15.1388C19.7245 15.1388 19.4936 15.232 19.3073 15.4183C19.1209 15.6047 19.0278 15.8356 19.0278 16.1111C19.0278 16.3865 19.1209 16.6174 19.3073 16.8038C19.4936 16.9901 19.7245 17.0833 20 17.0833ZM20 29.7222C18.6551 29.7222 17.3912 29.467 16.2083 28.9565C15.0255 28.4461 13.9965 27.7534 13.1215 26.8784C12.2465 26.0034 11.5538 24.9745 11.0434 23.7916C10.533 22.6087 10.2778 21.3449 10.2778 19.9999C10.2778 18.655 10.533 17.3911 11.0434 16.2083C11.5538 15.0254 12.2465 13.9965 13.1215 13.1215C13.9965 12.2465 15.0255 11.5538 16.2083 11.0433C17.3912 10.5329 18.6551 10.2777 20 10.2777C21.3449 10.2777 22.6088 10.5329 23.7917 11.0433C24.9745 11.5538 26.0035 12.2465 26.8785 13.1215C27.7535 13.9965 28.4462 15.0254 28.9566 16.2083C29.467 17.3911 29.7222 18.655 29.7222 19.9999C29.7222 21.3449 29.467 22.6087 28.9566 23.7916C28.4462 24.9745 27.7535 26.0034 26.8785 26.8784C26.0035 27.7534 24.9745 28.4461 23.7917 28.9565C22.6088 29.467 21.3449 29.7222 20 29.7222ZM20 27.7777C22.1713 27.7777 24.0104 27.0243 25.5174 25.5173C27.0243 24.0104 27.7778 22.1712 27.7778 19.9999C27.7778 17.8286 27.0243 15.9895 25.5174 14.4826C24.0104 12.9756 22.1713 12.2222 20 12.2222C17.8287 12.2222 15.9896 12.9756 14.4826 14.4826C12.9757 15.9895 12.2222 17.8286 12.2222 19.9999C12.2222 22.1712 12.9757 24.0104 14.4826 25.5173C15.9896 27.0243 17.8287 27.7777 20 27.7777Z" fill="#2BEE4B"/>
</svg>
