<svg width="40" height="40" viewBox="0 0 40 40" fill="none" xmlns="http://www.w3.org/2000/svg">
<rect width="40" height="40" rx="8" fill="#2BEE4B" fill-opacity="0.2"/>
<path d="M20 29.7222C18.6713 29.7222 17.4155 29.467 16.2326 28.9565C15.0498 28.4461 14.0168 27.7494 13.1337 26.8663C12.2506 25.9832 11.5538 24.9502 11.0434 23.7673C10.533 22.5844 10.2778 21.3286 10.2778 19.9999C10.2778 18.655 10.533 17.3952 11.0434 16.2204C11.5538 15.0457 12.2506 14.0167 13.1337 13.1336C14.0168 12.2505 15.0498 11.5538 16.2326 11.0433C17.4155 10.5329 18.6713 10.2777 20 10.2777C21.3449 10.2777 22.6047 10.5329 23.7795 11.0433C24.9543 11.5538 25.9832 12.2505 26.8663 13.1336C27.7494 14.0167 28.4462 15.0457 28.9566 16.2204C29.467 17.3952 29.7222 18.655 29.7222 19.9999C29.7222 21.3286 29.467 22.5844 28.9566 23.7673C28.4462 24.9502 27.7494 25.9832 26.8663 26.8663C25.9832 27.7494 24.9543 28.4461 23.7795 28.9565C22.6047 29.467 21.3449 29.7222 20 29.7222ZM20 27.7291C20.4213 27.1458 20.7859 26.5381 21.0937 25.9062C21.4016 25.2743 21.6528 24.6018 21.8472 23.8888H18.1528C18.3472 24.6018 18.5984 25.2743 18.9062 25.9062C19.2141 26.5381 19.5787 27.1458 20 27.7291ZM17.4722 27.3402C17.1805 26.8055 16.9253 26.2505 16.7066 25.6753C16.4878 25.1001 16.3055 24.5046 16.1597 23.8888H13.2917C13.7616 24.699 14.349 25.4039 15.0538 26.0034C15.7587 26.603 16.5648 27.0486 17.4722 27.3402ZM22.5278 27.3402C23.4352 27.0486 24.2413 26.603 24.9462 26.0034C25.651 25.4039 26.2384 24.699 26.7083 23.8888H23.8403C23.6944 24.5046 23.5121 25.1001 23.2934 25.6753C23.0746 26.2505 22.8194 26.8055 22.5278 27.3402ZM12.4653 21.9444H15.7708C15.7222 21.6203 15.6858 21.3003 15.6615 20.9843C15.6371 20.6683 15.625 20.3402 15.625 19.9999C15.625 19.6597 15.6371 19.3315 15.6615 19.0156C15.6858 18.6996 15.7222 18.3796 15.7708 18.0555H12.4653C12.3843 18.3796 12.3235 18.6996 12.283 19.0156C12.2425 19.3315 12.2222 19.6597 12.2222 19.9999C12.2222 20.3402 12.2425 20.6683 12.283 20.9843C12.3235 21.3003 12.3843 21.6203 12.4653 21.9444ZM17.7153 21.9444H22.2847C22.3333 21.6203 22.3698 21.3003 22.3941 20.9843C22.4184 20.6683 22.4305 20.3402 22.4305 19.9999C22.4305 19.6597 22.4184 19.3315 22.3941 19.0156C22.3698 18.6996 22.3333 18.3796 22.2847 18.0555H17.7153C17.6667 18.3796 17.6302 18.6996 17.6059 19.0156C17.5816 19.3315 17.5694 19.6597 17.5694 19.9999C17.5694 20.3402 17.5816 20.6683 17.6059 20.9843C17.6302 21.3003 17.6667 21.6203 17.7153 21.9444ZM24.2292 21.9444H27.5347C27.6157 21.6203 27.6765 21.3003 27.717 20.9843C27.7575 20.6683 27.7778 20.3402 27.7778 19.9999C27.7778 19.6597 27.7575 19.3315 27.717 19.0156C27.6765 18.6996 27.6157 18.3796 27.5347 18.0555H24.2292C24.2778 18.3796 24.3142 18.6996 24.3385 19.0156C24.3628 19.3315 24.375 19.6597 24.375 19.9999C24.375 20.3402 24.3628 20.6683 24.3385 20.9843C24.3142 21.3003 24.2778 21.6203 24.2292 21.9444ZM23.8403 16.1111H26.7083C26.2384 15.3009 25.651 14.596 24.9462 13.9965C24.2413 13.3969 23.4352 12.9513 22.5278 12.6597C22.8194 13.1944 23.0746 13.7494 23.2934 14.3246C23.5121 14.8998 23.6944 15.4953 23.8403 16.1111ZM18.1528 16.1111H21.8472C21.6528 15.3981 21.4016 14.7256 21.0937 14.0937C20.7859 13.4618 20.4213 12.8541 20 12.2708C19.5787 12.8541 19.2141 13.4618 18.9062 14.0937C18.5984 14.7256 18.3472 15.3981 18.1528 16.1111ZM13.2917 16.1111H16.1597C16.3055 15.4953 16.4878 14.8998 16.7066 14.3246C16.9253 13.7494 17.1805 13.1944 17.4722 12.6597C16.5648 12.9513 15.7587 13.3969 15.0538 13.9965C14.349 14.596 13.7616 15.3009 13.2917 16.1111Z" fill="#2BEE4B"/>
</svg>
