<svg width="40" height="40" viewBox="0 0 40 40" fill="none" xmlns="http://www.w3.org/2000/svg">
<rect width="40" height="40" rx="8" fill="#2BEE4B" fill-opacity="0.2"/>
<path d="M14.1666 29.7222C13.6319 29.7222 13.1742 29.5318 12.7934 29.151C12.4126 28.7702 12.2222 28.3124 12.2222 27.7777V18.0555C12.2222 17.5208 12.4126 17.063 12.7934 16.6822C13.1742 16.3014 13.6319 16.1111 14.1666 16.1111H15.1389V14.1666C15.1389 12.8217 15.6128 11.6753 16.5607 10.7274C17.5087 9.77946 18.6551 9.3055 20 9.3055C21.3449 9.3055 22.4913 9.77946 23.4392 10.7274C24.3871 11.6753 24.8611 12.8217 24.8611 14.1666V16.1111H25.8333C26.368 16.1111 26.8258 16.3014 27.2066 16.6822C27.5874 17.063 27.7778 17.5208 27.7778 18.0555V27.7777C27.7778 28.3124 27.5874 28.7702 27.2066 29.151C26.8258 29.5318 26.368 29.7222 25.8333 29.7222H14.1666ZM14.1666 27.7777H25.8333V18.0555H14.1666V27.7777ZM20 24.8611C20.5347 24.8611 20.9925 24.6707 21.3732 24.2899C21.754 23.9091 21.9444 23.4513 21.9444 22.9166C21.9444 22.3819 21.754 21.9241 21.3732 21.5433C20.9925 21.1626 20.5347 20.9722 20 20.9722C19.4653 20.9722 19.0075 21.1626 18.6267 21.5433C18.2459 21.9241 18.0555 22.3819 18.0555 22.9166C18.0555 23.4513 18.2459 23.9091 18.6267 24.2899C19.0075 24.6707 19.4653 24.8611 20 24.8611ZM17.0833 16.1111H22.9166V14.1666C22.9166 13.3564 22.6331 12.6678 22.0659 12.1006C21.4988 11.5335 20.8102 11.2499 20 11.2499C19.1898 11.2499 18.5011 11.5335 17.934 12.1006C17.3669 12.6678 17.0833 13.3564 17.0833 14.1666V16.1111Z" fill="#2BEE4B"/>
</svg>
