<svg width="40" height="40" viewBox="0 0 40 40" fill="none" xmlns="http://www.w3.org/2000/svg">
<rect width="40" height="40" rx="8" fill="#2BEE4B" fill-opacity="0.2"/>
<path d="M20 28.75C17.5694 28.75 15.5035 27.8993 13.8021 26.1979C12.1007 24.4965 11.25 22.4306 11.25 20C11.25 17.5694 12.1007 15.5035 13.8021 13.8021C15.5035 12.1007 17.5694 11.25 20 11.25C20.2269 11.25 20.4497 11.2581 20.6684 11.2743C20.8872 11.2905 21.1019 11.3148 21.3125 11.3472C20.6481 11.8171 20.1175 12.4288 19.7205 13.1823C19.3235 13.9358 19.125 14.75 19.125 15.625C19.125 17.0833 19.6354 18.3229 20.6562 19.3438C21.6771 20.3646 22.9167 20.875 24.375 20.875C25.2662 20.875 26.0845 20.6765 26.8299 20.2795C27.5752 19.8825 28.1829 19.3519 28.6528 18.6875C28.6852 18.8981 28.7095 19.1128 28.7257 19.3316C28.7419 19.5503 28.75 19.7731 28.75 20C28.75 22.4306 27.8993 24.4965 26.1979 26.1979C24.4965 27.8993 22.4306 28.75 20 28.75ZM20 26.8056C21.4259 26.8056 22.706 26.4126 23.8403 25.6267C24.9745 24.8409 25.8009 23.816 26.3194 22.5521C25.9954 22.6331 25.6713 22.6979 25.3472 22.7465C25.0231 22.7951 24.6991 22.8194 24.375 22.8194C22.3819 22.8194 20.6846 22.1186 19.283 20.717C17.8814 19.3154 17.1806 17.6181 17.1806 15.625C17.1806 15.3009 17.2049 14.9769 17.2535 14.6528C17.3021 14.3287 17.3669 14.0046 17.4479 13.6806C16.184 14.1991 15.1591 15.0255 14.3733 16.1597C13.5874 17.294 13.1944 18.5741 13.1944 20C13.1944 21.8796 13.8588 23.4838 15.1875 24.8125C16.5162 26.1412 18.1204 26.8056 20 26.8056Z" fill="#2BEE4B"/>
</svg>
