<svg width="40" height="40" viewBox="0 0 40 40" fill="none" xmlns="http://www.w3.org/2000/svg">
<rect width="40" height="40" rx="8" fill="#2BEE4B" fill-opacity="0.2"/>
<path d="M20 20.0001C18.9305 20.0001 18.015 19.6193 17.2534 18.8577C16.4919 18.0961 16.1111 17.1806 16.1111 16.1112C16.1111 15.0417 16.4919 14.1262 17.2534 13.3646C18.015 12.6031 18.9305 12.2223 20 12.2223C21.0694 12.2223 21.9849 12.6031 22.7465 13.3646C23.5081 14.1262 23.8889 15.0417 23.8889 16.1112C23.8889 17.1806 23.5081 18.0961 22.7465 18.8577C21.9849 19.6193 21.0694 20.0001 20 20.0001ZM12.2222 27.7778V25.0556C12.2222 24.5047 12.364 23.9983 12.6475 23.5365C12.9311 23.0747 13.3078 22.7223 13.7778 22.4792C14.7824 21.9769 15.8032 21.6002 16.8403 21.349C17.8773 21.0979 18.9305 20.9723 20 20.9723C21.0694 20.9723 22.1227 21.0979 23.1597 21.349C24.1967 21.6002 25.2176 21.9769 26.2222 22.4792C26.6921 22.7223 27.0688 23.0747 27.3524 23.5365C27.636 23.9983 27.7778 24.5047 27.7778 25.0556V27.7778H12.2222ZM14.1666 25.8334H25.8333V25.0556C25.8333 24.8774 25.7887 24.7153 25.6996 24.5695C25.6105 24.4237 25.493 24.3102 25.3472 24.2292C24.4722 23.7917 23.5891 23.4636 22.6979 23.2448C21.8067 23.0261 20.9074 22.9167 20 22.9167C19.0926 22.9167 18.1933 23.0261 17.3021 23.2448C16.4109 23.4636 15.5278 23.7917 14.6528 24.2292C14.5069 24.3102 14.3894 24.4237 14.3003 24.5695C14.2112 24.7153 14.1666 24.8774 14.1666 25.0556V25.8334ZM20 18.0556C20.5347 18.0556 20.9925 17.8652 21.3732 17.4844C21.754 17.1036 21.9444 16.6459 21.9444 16.1112C21.9444 15.5764 21.754 15.1187 21.3732 14.7379C20.9925 14.3571 20.5347 14.1667 20 14.1667C19.4653 14.1667 19.0075 14.3571 18.6267 14.7379C18.2459 15.1187 18.0555 15.5764 18.0555 16.1112C18.0555 16.6459 18.2459 17.1036 18.6267 17.4844C19.0075 17.8652 19.4653 18.0556 20 18.0556Z" fill="#2BEE4B"/>
</svg>
