<svg width="40" height="40" viewBox="0 0 40 40" fill="none" xmlns="http://www.w3.org/2000/svg">
<rect width="40" height="40" rx="8" fill="#2BEE4B" fill-opacity="0.2"/>
<path d="M12.2222 26.8055V24.8611H14.1666V18.0555C14.1666 16.7106 14.5717 15.5156 15.3819 14.4704C16.1921 13.4253 17.2453 12.7407 18.5416 12.4166V11.7361C18.5416 11.331 18.6834 10.9866 18.967 10.7031C19.2506 10.4195 19.5949 10.2777 20 10.2777C20.4051 10.2777 20.7494 10.4195 21.033 10.7031C21.3165 10.9866 21.4583 11.331 21.4583 11.7361V12.4166C22.7546 12.7407 23.8078 13.4253 24.618 14.4704C25.4282 15.5156 25.8333 16.7106 25.8333 18.0555V24.8611H27.7778V26.8055H12.2222ZM20 29.7222C19.4653 29.7222 19.0075 29.5318 18.6267 29.151C18.2459 28.7702 18.0555 28.3124 18.0555 27.7777H21.9444C21.9444 28.3124 21.754 28.7702 21.3732 29.151C20.9925 29.5318 20.5347 29.7222 20 29.7222ZM16.1111 24.8611H23.8889V18.0555C23.8889 16.9861 23.5081 16.0705 22.7465 15.309C21.9849 14.5474 21.0694 14.1666 20 14.1666C18.9305 14.1666 18.015 14.5474 17.2534 15.309C16.4919 16.0705 16.1111 16.9861 16.1111 18.0555V24.8611Z" fill="#2BEE4B"/>
</svg>
